<svg width="13" height="19" viewBox="0 0 13 19" fill="none" xmlns="http://www.w3.org/2000/svg">
<path d="M12.816 9.648C12.816 12.448 12.28 14.6 11.208 16.104C10.152 17.592 8.688 18.336 6.816 18.336C4.944 18.336 3.472 17.592 2.4 16.104C1.344 14.6 0.816 12.448 0.816 9.648C0.816 8.256 0.952 7.024 1.224 5.952C1.512 4.88 1.92 3.976 2.448 3.24C2.976 2.504 3.608 1.944 4.344 1.56C5.08 1.176 5.904 0.983999 6.816 0.983999C8.688 0.983999 10.152 1.736 11.208 3.24C12.28 4.728 12.816 6.864 12.816 9.648ZM9.168 9.648C9.168 8.816 9.128 8.064 9.048 7.392C8.968 6.704 8.84 6.112 8.664 5.616C8.488 5.12 8.248 4.736 7.944 4.464C7.64 4.192 7.264 4.056 6.816 4.056C6.368 4.056 5.992 4.192 5.688 4.464C5.4 4.736 5.16 5.12 4.968 5.616C4.792 6.112 4.664 6.704 4.584 7.392C4.504 8.064 4.464 8.816 4.464 9.648C4.464 10.48 4.504 11.24 4.584 11.928C4.664 12.616 4.792 13.208 4.968 13.704C5.16 14.2 5.4 14.584 5.688 14.856C5.992 15.128 6.368 15.264 6.816 15.264C7.264 15.264 7.64 15.128 7.944 14.856C8.248 14.584 8.488 14.2 8.664 13.704C8.84 13.208 8.968 12.616 9.048 11.928C9.128 11.24 9.168 10.48 9.168 9.648Z" fill="#F9E300"/>
<path d="M11.208 16.104L10.8008 15.8138L10.8002 15.8146L11.208 16.104ZM2.4 16.104L1.99076 16.3913L1.99432 16.3963L2.4 16.104ZM1.224 5.952L0.741076 5.82226L0.739357 5.82903L1.224 5.952ZM4.344 1.56L4.11272 1.11671L4.11272 1.11671L4.344 1.56ZM11.208 3.24L10.7988 3.52734L10.8023 3.53227L11.208 3.24ZM9.048 7.392L8.55134 7.44975L8.55151 7.45111L9.048 7.392ZM8.664 5.616L9.13521 5.44879L8.664 5.616ZM7.944 4.464L7.6106 4.83662H7.6106L7.944 4.464ZM5.688 4.464L5.35448 4.09124L5.34469 4.10049L5.688 4.464ZM4.968 5.616L4.50172 5.4355L4.49916 5.44211L4.49679 5.44879L4.968 5.616ZM4.584 7.392L5.0805 7.45111L5.08065 7.44975L4.584 7.392ZM4.584 11.928L5.08065 11.8702L4.584 11.928ZM4.968 13.704L4.49679 13.8712L4.49916 13.8779L4.50172 13.8845L4.968 13.704ZM5.688 14.856L5.34456 15.2196L5.3546 15.2286L5.688 14.856ZM7.944 14.856L8.2774 15.2286L7.944 14.856ZM8.664 13.704L9.13521 13.8712L8.664 13.704ZM9.048 11.928L8.55135 11.8702L9.048 11.928ZM12.316 9.648C12.316 12.3945 11.7886 14.428 10.8008 15.8138L11.6152 16.3942C12.7714 14.772 13.316 12.5015 13.316 9.648H12.316ZM10.8002 15.8146C9.84087 17.1665 8.53098 17.836 6.816 17.836V18.836C8.84502 18.836 10.4631 18.0175 11.6158 16.3934L10.8002 15.8146ZM6.816 17.836C5.1008 17.836 3.78142 17.1661 2.80568 15.8117L1.99432 16.3963C3.16258 18.0179 4.7872 18.836 6.816 18.836V17.836ZM2.80921 15.8167C1.83586 14.4304 1.316 12.3957 1.316 9.648H0.316C0.316 12.5003 0.852142 14.7696 1.99079 16.3913L2.80921 15.8167ZM1.316 9.648C1.316 8.28731 1.44907 7.098 1.70864 6.07497L0.739357 5.82903C0.454931 6.95 0.316 8.22469 0.316 9.648H1.316ZM1.70688 6.08173C1.98268 5.05514 2.36823 4.20896 2.85427 3.53145L2.04173 2.94855C1.47177 3.74304 1.04132 4.70486 0.741123 5.82227L1.70688 6.08173ZM2.85427 3.53145C3.34087 2.85316 3.91486 2.34786 4.57528 2.00329L4.11272 1.11671C3.30114 1.54014 2.61113 2.15484 2.04173 2.94855L2.85427 3.53145ZM4.57528 2.00329C5.23304 1.66012 5.97644 1.484 6.816 1.484V0.483999C5.83156 0.483999 4.92696 0.691882 4.11272 1.11671L4.57528 2.00329ZM6.816 1.484C8.52872 1.484 9.83847 2.15958 10.7988 3.52732L11.6172 2.95268C10.4655 1.31242 8.84728 0.483999 6.816 0.483999V1.484ZM10.8023 3.53227C11.7887 4.90137 12.316 6.91773 12.316 9.648H13.316C13.316 6.81027 12.7713 4.55463 11.6137 2.94773L10.8023 3.53227ZM9.668 9.648C9.668 8.80053 9.62729 8.02835 9.54449 7.33289L8.55151 7.45111C8.62871 8.09965 8.668 8.83147 8.668 9.648H9.668ZM9.54465 7.33425C9.46159 6.61991 9.32701 5.9893 9.13521 5.44879L8.19279 5.7832C8.35299 6.2347 8.47441 6.78809 8.55135 7.44975L9.54465 7.33425ZM9.13521 5.44879C8.93912 4.89615 8.65935 4.43312 8.2774 4.09138L7.6106 4.83662C7.83666 5.03888 8.03689 5.34384 8.19279 5.7832L9.13521 5.44879ZM8.2774 4.09138C7.87243 3.72904 7.37395 3.556 6.816 3.556V4.556C7.15405 4.556 7.40757 4.65496 7.6106 4.83662L8.2774 4.09138ZM6.816 3.556C6.25805 3.556 5.75957 3.72904 5.3546 4.09138L6.0214 4.83662C6.22443 4.65496 6.47795 4.556 6.816 4.556V3.556ZM5.34469 4.10049C4.98737 4.43796 4.71183 4.89271 4.50172 5.4355L5.43428 5.7965C5.60817 5.34729 5.81263 5.03404 6.03131 4.82751L5.34469 4.10049ZM4.49679 5.44879C4.30499 5.9893 4.17041 6.61991 4.08735 7.33425L5.08065 7.44975C5.15759 6.78809 5.27901 6.2347 5.43921 5.7832L4.49679 5.44879ZM4.08751 7.33289C4.00471 8.02835 3.964 8.80053 3.964 9.648H4.964C4.964 8.83147 5.00329 8.09965 5.08049 7.45111L4.08751 7.33289ZM3.964 9.648C3.964 10.4956 4.00473 11.2752 4.08735 11.9858L5.08065 11.8702C5.00327 11.2048 4.964 10.4644 4.964 9.648H3.964ZM4.08735 11.9858C4.17041 12.7001 4.30499 13.3307 4.49679 13.8712L5.43921 13.5368C5.27901 13.0853 5.15759 12.5319 5.08065 11.8702L4.08735 11.9858ZM4.50172 13.8845C4.71183 14.4273 4.98737 14.882 5.34469 15.2195L6.03131 14.4925C5.81263 14.286 5.60817 13.9727 5.43428 13.5235L4.50172 13.8845ZM5.3546 15.2286C5.75957 15.591 6.25805 15.764 6.816 15.764V14.764C6.47795 14.764 6.22443 14.665 6.0214 14.4834L5.3546 15.2286ZM6.816 15.764C7.37395 15.764 7.87243 15.591 8.2774 15.2286L7.6106 14.4834C7.40757 14.665 7.15405 14.764 6.816 14.764V15.764ZM8.2774 15.2286C8.65935 14.8869 8.93912 14.4238 9.13521 13.8712L8.19279 13.5368C8.03689 13.9762 7.83666 14.2811 7.6106 14.4834L8.2774 15.2286ZM9.13521 13.8712C9.32701 13.3307 9.46159 12.7001 9.54465 11.9858L8.55135 11.8702C8.47441 12.5319 8.35299 13.0853 8.19279 13.5368L9.13521 13.8712ZM9.54465 11.9858C9.62727 11.2752 9.668 10.4956 9.668 9.648H8.668C8.668 10.4644 8.62873 11.2048 8.55135 11.8702L9.54465 11.9858Z" fill="#555555"/>
</svg>
