<svg width="53" height="19" viewBox="0 0 53 19" fill="none" xmlns="http://www.w3.org/2000/svg">
<path d="M0.68 4.824C1.144 4.632 1.624 4.416 2.12 4.176C2.632 3.92 3.128 3.648 3.608 3.36C4.088 3.056 4.544 2.744 4.976 2.424C5.424 2.088 5.824 1.736 6.176 1.368H8.672V18H5.096V6.024C4.616 6.344 4.08 6.64 3.488 6.912C2.896 7.168 2.32 7.392 1.76 7.584L0.68 4.824ZM25.4566 9.648C25.4566 12.448 24.9206 14.6 23.8486 16.104C22.7926 17.592 21.3286 18.336 19.4566 18.336C17.5846 18.336 16.1126 17.592 15.0406 16.104C13.9846 14.6 13.4566 12.448 13.4566 9.648C13.4566 8.256 13.5926 7.024 13.8646 5.952C14.1526 4.88 14.5606 3.976 15.0886 3.24C15.6166 2.504 16.2486 1.944 16.9846 1.56C17.7206 1.176 18.5446 0.983999 19.4566 0.983999C21.3286 0.983999 22.7926 1.736 23.8486 3.24C24.9206 4.728 25.4566 6.864 25.4566 9.648ZM21.8086 9.648C21.8086 8.816 21.7686 8.064 21.6886 7.392C21.6086 6.704 21.4806 6.112 21.3046 5.616C21.1286 5.12 20.8886 4.736 20.5846 4.464C20.2806 4.192 19.9046 4.056 19.4566 4.056C19.0086 4.056 18.6326 4.192 18.3286 4.464C18.0406 4.736 17.8006 5.12 17.6086 5.616C17.4326 6.112 17.3046 6.704 17.2246 7.392C17.1446 8.064 17.1046 8.816 17.1046 9.648C17.1046 10.48 17.1446 11.24 17.2246 11.928C17.3046 12.616 17.4326 13.208 17.6086 13.704C17.8006 14.2 18.0406 14.584 18.3286 14.856C18.6326 15.128 19.0086 15.264 19.4566 15.264C19.9046 15.264 20.2806 15.128 20.5846 14.856C20.8886 14.584 21.1286 14.2 21.3046 13.704C21.4806 13.208 21.6086 12.616 21.6886 11.928C21.7686 11.24 21.8086 10.48 21.8086 9.648ZM39.0013 13.368C39.0013 14.088 38.8733 14.752 38.6172 15.36C38.3773 15.952 38.0093 16.472 37.5133 16.92C37.0173 17.368 36.3933 17.72 35.6413 17.976C34.9053 18.216 34.0493 18.336 33.0733 18.336C31.9533 18.336 31.0173 18.184 30.2653 17.88C29.5293 17.56 28.9293 17.168 28.4653 16.704C28.0173 16.24 27.6973 15.736 27.5053 15.192C27.3133 14.632 27.2173 14.12 27.2173 13.656C27.2173 13.176 27.2813 12.736 27.4093 12.336C27.5373 11.936 27.7133 11.576 27.9373 11.256C28.1613 10.92 28.4093 10.616 28.6813 10.344C28.9693 10.072 29.2733 9.816 29.5933 9.576C28.9053 9.016 28.3933 8.464 28.0573 7.92C27.7373 7.376 27.5773 6.68 27.5773 5.832C27.5773 5.192 27.7053 4.576 27.9613 3.984C28.2333 3.392 28.6093 2.88 29.0893 2.448C29.5693 2 30.1453 1.648 30.8173 1.392C31.5053 1.12 32.2653 0.983999 33.0973 0.983999C34.0733 0.983999 34.9053 1.128 35.5933 1.416C36.2973 1.688 36.8733 2.04 37.3213 2.472C37.7693 2.904 38.0893 3.392 38.2812 3.936C38.4893 4.464 38.5933 4.992 38.5933 5.52C38.5933 6.288 38.3853 7.008 37.9693 7.68C37.5693 8.336 37.0653 8.856 36.4573 9.24C37.3693 9.832 38.0173 10.456 38.4012 11.112C38.8013 11.752 39.0013 12.504 39.0013 13.368ZM30.6973 13.512C30.6973 13.704 30.7373 13.92 30.8173 14.16C30.9133 14.384 31.0573 14.592 31.2493 14.784C31.4413 14.976 31.6893 15.136 31.9933 15.264C32.2973 15.392 32.6653 15.456 33.0973 15.456C33.9293 15.456 34.5373 15.256 34.9213 14.856C35.3053 14.456 35.4973 14.008 35.4973 13.512C35.4973 13.144 35.4093 12.816 35.2333 12.528C35.0733 12.24 34.8493 11.992 34.5613 11.784C34.2733 11.56 33.9293 11.368 33.5293 11.208C33.1453 11.032 32.7293 10.872 32.2812 10.728C31.8333 11.064 31.4573 11.456 31.1533 11.904C30.8493 12.352 30.6973 12.888 30.6973 13.512ZM35.1373 5.616C35.1373 5.44 35.0973 5.256 35.0173 5.064C34.9533 4.856 34.8333 4.664 34.6573 4.488C34.4973 4.312 34.2893 4.168 34.0333 4.056C33.7773 3.928 33.4653 3.864 33.0973 3.864C32.7453 3.864 32.4413 3.92 32.1853 4.032C31.9293 4.144 31.7133 4.296 31.5373 4.488C31.3773 4.664 31.2573 4.856 31.1773 5.064C31.0973 5.272 31.0573 5.472 31.0573 5.664C31.0573 6.176 31.2413 6.656 31.6093 7.104C31.9933 7.552 32.6413 7.936 33.5533 8.256C34.0653 7.936 34.4573 7.568 34.7293 7.152C35.0013 6.736 35.1373 6.224 35.1373 5.616ZM48.5619 13.104C48.5619 12.64 48.4579 12.232 48.2499 11.88C48.0419 11.512 47.6819 11.208 47.1699 10.968C46.6579 10.728 45.9699 10.544 45.1059 10.416C44.2419 10.288 43.1539 10.224 41.8419 10.224C42.0179 8.736 42.1619 7.224 42.2739 5.688C42.3859 4.152 42.4739 2.712 42.5379 1.368H51.5379V4.368H45.5379C45.5059 4.944 45.4659 5.504 45.4179 6.048C45.3859 6.576 45.3459 7.04 45.2979 7.44C47.6339 7.6 49.3539 8.152 50.4579 9.096C51.5779 10.024 52.1379 11.32 52.1379 12.984C52.1379 13.752 52.0019 14.464 51.7299 15.12C51.4579 15.776 51.0499 16.344 50.5059 16.824C49.9619 17.304 49.2739 17.68 48.4419 17.952C47.6259 18.224 46.6659 18.36 45.5619 18.36C45.1299 18.36 44.6739 18.328 44.1939 18.264C43.7299 18.216 43.2739 18.144 42.8259 18.048C42.3939 17.968 42.0019 17.88 41.6499 17.784C41.2979 17.688 41.0259 17.592 40.8339 17.496L41.4819 14.544C41.8819 14.72 42.4099 14.896 43.0659 15.072C43.7219 15.232 44.5059 15.312 45.4179 15.312C46.5219 15.312 47.3219 15.096 47.8179 14.664C48.3139 14.216 48.5619 13.696 48.5619 13.104Z" fill="#F9E300"/>
<path d="M0.68 4.824L0.488824 4.36199L0.0356714 4.5495L0.214379 5.0062L0.68 4.824ZM2.12 4.176L2.3378 4.62612L2.34361 4.62321L2.12 4.176ZM3.608 3.36L3.86532 3.78887L3.87553 3.78241L3.608 3.36ZM4.976 2.424L5.27362 2.82578L5.276 2.824L4.976 2.424ZM6.176 1.368V0.868H5.96236L5.81468 1.02239L6.176 1.368ZM8.672 1.368H9.172V0.868H8.672V1.368ZM8.672 18V18.5H9.172V18H8.672ZM5.096 18H4.596V18.5H5.096V18ZM5.096 6.024H5.596V5.08974L4.81865 5.60797L5.096 6.024ZM3.488 6.912L3.68651 7.37105L3.69675 7.36634L3.488 6.912ZM1.76 7.584L1.29438 7.7662L1.46896 8.21236L1.92216 8.05697L1.76 7.584ZM0.871176 5.28601C1.34497 5.08995 1.83386 4.86991 2.33778 4.62608L1.90222 3.72592C1.41414 3.96209 0.943027 4.17404 0.488824 4.36199L0.871176 5.28601ZM2.34361 4.62321C2.86679 4.36162 3.37403 4.08348 3.86525 3.78875L3.35075 2.93125C2.88197 3.21252 2.39721 3.47838 1.89639 3.72879L2.34361 4.62321ZM3.87553 3.78241C4.36523 3.47227 4.83131 3.15341 5.27361 2.82578L4.67839 2.02222C4.25669 2.33459 3.81077 2.63973 3.34047 2.93759L3.87553 3.78241ZM5.276 2.824C5.74376 2.47318 6.16464 2.10323 6.53732 1.71361L5.81468 1.02239C5.48336 1.36877 5.10424 1.70282 4.676 2.024L5.276 2.824ZM6.176 1.868H8.672V0.868H6.176V1.868ZM8.172 1.368V18H9.172V1.368H8.172ZM8.672 17.5H5.096V18.5H8.672V17.5ZM5.596 18V6.024H4.596V18H5.596ZM4.81865 5.60797C4.36306 5.9117 3.85041 6.19524 3.27925 6.45766L3.69675 7.36634C4.30959 7.08476 4.86894 6.7763 5.37335 6.44003L4.81865 5.60797ZM3.28954 6.45307C2.70841 6.70437 2.14453 6.92359 1.59784 7.11103L1.92216 8.05697C2.49547 7.86041 3.08359 7.63163 3.68646 7.37093L3.28954 6.45307ZM2.22562 7.4018L1.14562 4.6418L0.214379 5.0062L1.29438 7.7662L2.22562 7.4018ZM23.8486 16.104L23.4415 15.8138L23.4409 15.8146L23.8486 16.104ZM15.0406 16.104L14.6314 16.3913L14.6349 16.3963L15.0406 16.104ZM13.8646 5.952L13.3817 5.82226L13.38 5.82903L13.8646 5.952ZM16.9846 1.56L16.7533 1.11671V1.11671L16.9846 1.56ZM23.8486 3.24L23.4394 3.52734L23.4429 3.53227L23.8486 3.24ZM21.6886 7.392L21.192 7.44975L21.1921 7.45111L21.6886 7.392ZM21.3046 5.616L21.7758 5.44879L21.3046 5.616ZM20.5846 4.464L20.2512 4.83662L20.5846 4.464ZM18.3286 4.464L17.9951 4.09124L17.9853 4.10049L18.3286 4.464ZM17.6086 5.616L17.1423 5.4355L17.1398 5.44211L17.1374 5.44879L17.6086 5.616ZM17.2246 7.392L17.7211 7.45111L17.7213 7.44975L17.2246 7.392ZM17.2246 11.928L17.7213 11.8702L17.2246 11.928ZM17.6086 13.704L17.1374 13.8712L17.1398 13.8779L17.1423 13.8845L17.6086 13.704ZM18.3286 14.856L17.9852 15.2196L17.9952 15.2286L18.3286 14.856ZM20.5846 14.856L20.918 15.2286L20.5846 14.856ZM21.3046 13.704L21.7758 13.8712L21.3046 13.704ZM21.6886 11.928L21.192 11.8702L21.6886 11.928ZM24.9566 9.648C24.9566 12.3945 24.4292 14.428 23.4415 15.8138L24.2558 16.3942C25.412 14.772 25.9566 12.5015 25.9566 9.648H24.9566ZM23.4409 15.8146C22.4815 17.1665 21.1716 17.836 19.4566 17.836V18.836C21.4856 18.836 23.1038 18.0175 24.2564 16.3934L23.4409 15.8146ZM19.4566 17.836C17.7414 17.836 16.422 17.1661 15.4463 15.8117L14.6349 16.3963C15.8032 18.0179 17.4278 18.836 19.4566 18.836V17.836ZM15.4498 15.8167C14.4765 14.4304 13.9566 12.3957 13.9566 9.648H12.9566C12.9566 12.5003 13.4928 14.7696 14.6314 16.3913L15.4498 15.8167ZM13.9566 9.648C13.9566 8.28731 14.0897 7.098 14.3493 6.07497L13.38 5.82903C13.0956 6.95 12.9566 8.22469 12.9566 9.648H13.9566ZM14.3475 6.08173C14.6233 5.05514 15.0089 4.20896 15.4949 3.53145L14.6824 2.94855C14.1124 3.74304 13.6819 4.70486 13.3817 5.82227L14.3475 6.08173ZM15.4949 3.53145C15.9815 2.85316 16.5555 2.34786 17.2159 2.00329L16.7533 1.11671C15.9418 1.54014 15.2518 2.15484 14.6824 2.94855L15.4949 3.53145ZM17.2159 2.00329C17.8737 1.66012 18.6171 1.484 19.4566 1.484V0.483999C18.4722 0.483999 17.5676 0.691882 16.7533 1.11671L17.2159 2.00329ZM19.4566 1.484C21.1693 1.484 22.4791 2.15958 23.4394 3.52732L24.2578 2.95268C23.1062 1.31242 21.4879 0.483999 19.4566 0.483999V1.484ZM23.4429 3.53227C24.4293 4.90137 24.9566 6.91773 24.9566 9.648H25.9566C25.9566 6.81027 25.412 4.55463 24.2543 2.94773L23.4429 3.53227ZM22.3086 9.648C22.3086 8.80053 22.2679 8.02835 22.1851 7.33289L21.1921 7.45111C21.2693 8.09965 21.3086 8.83147 21.3086 9.648H22.3086ZM22.1853 7.33425C22.1022 6.61991 21.9676 5.9893 21.7758 5.44879L20.8334 5.7832C20.9936 6.2347 21.115 6.78809 21.192 7.44975L22.1853 7.33425ZM21.7758 5.44879C21.5797 4.89615 21.3 4.43312 20.918 4.09138L20.2512 4.83662C20.4773 5.03888 20.6775 5.34384 20.8334 5.7832L21.7758 5.44879ZM20.918 4.09138C20.5131 3.72904 20.0146 3.556 19.4566 3.556V4.556C19.7947 4.556 20.0482 4.65496 20.2512 4.83662L20.918 4.09138ZM19.4566 3.556C18.8987 3.556 18.4002 3.72904 17.9952 4.09138L18.662 4.83662C18.8651 4.65496 19.1186 4.556 19.4566 4.556V3.556ZM17.9853 4.10049C17.628 4.43796 17.3525 4.89271 17.1423 5.4355L18.0749 5.7965C18.2488 5.34729 18.4533 5.03404 18.6719 4.82751L17.9853 4.10049ZM17.1374 5.44879C16.9456 5.9893 16.811 6.61991 16.728 7.33425L17.7213 7.44975C17.7982 6.78809 17.9196 6.2347 18.0798 5.7832L17.1374 5.44879ZM16.7281 7.33289C16.6453 8.02835 16.6046 8.80053 16.6046 9.648H17.6046C17.6046 8.83147 17.6439 8.09965 17.7211 7.45111L16.7281 7.33289ZM16.6046 9.648C16.6046 10.4956 16.6454 11.2752 16.728 11.9858L17.7213 11.8702C17.6439 11.2048 17.6046 10.4644 17.6046 9.648H16.6046ZM16.728 11.9858C16.811 12.7001 16.9456 13.3307 17.1374 13.8712L18.0798 13.5368C17.9196 13.0853 17.7982 12.5319 17.7213 11.8702L16.728 11.9858ZM17.1423 13.8845C17.3525 14.4273 17.628 14.882 17.9853 15.2195L18.6719 14.4925C18.4533 14.286 18.2488 13.9727 18.0749 13.5235L17.1423 13.8845ZM17.9952 15.2286C18.4002 15.591 18.8987 15.764 19.4566 15.764V14.764C19.1186 14.764 18.8651 14.665 18.662 14.4834L17.9952 15.2286ZM19.4566 15.764C20.0146 15.764 20.5131 15.591 20.918 15.2286L20.2512 14.4834C20.0482 14.665 19.7947 14.764 19.4566 14.764V15.764ZM20.918 15.2286C21.3 14.8869 21.5797 14.4238 21.7758 13.8712L20.8334 13.5368C20.6775 13.9762 20.4773 14.2811 20.2512 14.4834L20.918 15.2286ZM21.7758 13.8712C21.9676 13.3307 22.1022 12.7001 22.1853 11.9858L21.192 11.8702C21.115 12.5319 20.9936 13.0853 20.8334 13.5368L21.7758 13.8712ZM22.1853 11.9858C22.2679 11.2752 22.3086 10.4956 22.3086 9.648H21.3086C21.3086 10.4644 21.2694 11.2048 21.192 11.8702L22.1853 11.9858ZM38.6172 15.36L38.1564 15.166L38.1539 15.1721L38.6172 15.36ZM37.5133 16.92L37.8484 17.2911L37.5133 16.92ZM35.6413 17.976L35.7963 18.4514L35.8024 18.4493L35.6413 17.976ZM30.2653 17.88L30.0658 18.3387L30.0779 18.3436L30.2653 17.88ZM28.4653 16.704L28.1055 17.0514L28.1117 17.0576L28.4653 16.704ZM27.5053 15.192L27.0323 15.3542L27.0338 15.3584L27.5053 15.192ZM27.4093 12.336L26.933 12.1836L27.4093 12.336ZM27.9373 11.256L28.347 11.5428L28.3533 11.5333L27.9373 11.256ZM28.6812 10.344L28.3379 9.98049L28.3327 9.9854L28.3277 9.99045L28.6812 10.344ZM29.5933 9.576L29.8932 9.976L30.4051 9.59211L29.9089 9.18822L29.5933 9.576ZM28.0573 7.92L27.6262 8.17357L27.6319 8.18275L28.0573 7.92ZM27.9613 3.984L27.5068 3.7752L27.5023 3.78554L27.9613 3.984ZM29.0893 2.448L29.4238 2.81971L29.4304 2.81353L29.0893 2.448ZM30.8172 1.392L30.9953 1.85928L31.0011 1.85698L30.8172 1.392ZM35.5933 1.416L35.4001 1.8774L35.4131 1.8824L35.5933 1.416ZM37.3213 2.472L36.9742 2.83192V2.83192L37.3213 2.472ZM38.2812 3.936L37.8098 4.10241L37.8127 4.11089L37.816 4.11926L38.2812 3.936ZM37.9692 7.68L37.5441 7.41682L37.5424 7.4197L37.9692 7.68ZM36.4573 9.24L36.1903 8.81726L35.53 9.23423L36.185 9.65939L36.4573 9.24ZM38.4012 11.112L37.9697 11.3646L37.9734 11.3708L37.9772 11.377L38.4012 11.112ZM30.8172 14.16L30.3429 14.3181L30.3495 14.3378L30.3577 14.357L30.8172 14.16ZM34.9212 14.856L34.5606 14.5097L34.9212 14.856ZM35.2332 12.528L34.7962 12.7708L34.8012 12.7799L34.8066 12.7887L35.2332 12.528ZM34.5612 11.784L34.2543 12.1787L34.2613 12.1841L34.2685 12.1893L34.5612 11.784ZM33.5293 11.208L33.3209 11.6625L33.3321 11.6677L33.3436 11.6722L33.5293 11.208ZM32.2812 10.728L32.4343 10.252L32.1881 10.1729L31.9813 10.328L32.2812 10.728ZM31.1533 11.904L30.7395 11.6232L31.1533 11.904ZM35.0173 5.064L34.5394 5.21104L34.5464 5.23407L34.5557 5.25631L35.0173 5.064ZM34.6572 4.488L34.2873 4.82434L34.2953 4.83314L34.3037 4.84155L34.6572 4.488ZM34.0332 4.056L33.8096 4.50321L33.8211 4.50894L33.8328 4.51408L34.0332 4.056ZM32.1852 4.032L32.3857 4.49008V4.49008L32.1852 4.032ZM31.5373 4.488L31.1687 4.15014L31.1673 4.15166L31.5373 4.488ZM31.6092 7.104L31.2228 7.42144L31.2296 7.42939L31.6092 7.104ZM33.5532 8.256L33.3877 8.7278L33.6145 8.80736L33.8182 8.68L33.5532 8.256ZM34.7293 7.152L35.1477 7.42562V7.42562L34.7293 7.152ZM38.5013 13.368C38.5013 14.0275 38.3843 14.6248 38.1564 15.166L39.0781 15.554C39.3622 14.8792 39.5013 14.1485 39.5013 13.368H38.5013ZM38.1539 15.1721C37.9436 15.6909 37.6207 16.1491 37.1781 16.5489L37.8484 17.2911C38.3978 16.7949 38.8109 16.2131 39.0806 15.5479L38.1539 15.1721ZM37.1781 16.5489C36.7411 16.9436 36.1797 17.2645 35.4801 17.5027L35.8024 18.4493C36.6068 18.1755 37.2934 17.7924 37.8484 17.2911L37.1781 16.5489ZM35.4862 17.5006C34.8114 17.7207 34.0097 17.836 33.0732 17.836V18.836C34.0888 18.836 34.9991 18.7113 35.7963 18.4514L35.4862 17.5006ZM33.0732 17.836C31.9947 17.836 31.1271 17.6891 30.4526 17.4164L30.0779 18.3436C30.9074 18.6789 31.9118 18.836 33.0732 18.836V17.836ZM30.4646 17.4215C29.7737 17.1211 29.2298 16.7614 28.8188 16.3504L28.1117 17.0576C28.6287 17.5746 29.2848 17.9989 30.0659 18.3385L30.4646 17.4215ZM28.825 16.3567C28.4208 15.9382 28.1422 15.4944 27.9767 15.0256L27.0338 15.3584C27.2523 15.9776 27.6137 16.5418 28.1055 17.0513L28.825 16.3567ZM27.9782 15.0298C27.7994 14.5083 27.7173 14.052 27.7173 13.656H26.7173C26.7173 14.188 26.8271 14.7557 27.0323 15.3542L27.9782 15.0298ZM27.7173 13.656C27.7173 13.2205 27.7753 12.8327 27.8855 12.4884L26.933 12.1836C26.7872 12.6393 26.7173 13.1315 26.7173 13.656H27.7173ZM27.8855 12.4884C27.9993 12.1327 28.1538 11.8186 28.3469 11.5427L27.5276 10.9693C27.2727 11.3334 27.0752 11.7393 26.933 12.1836L27.8855 12.4884ZM28.3533 11.5333C28.5599 11.2234 28.7872 10.9451 29.0348 10.6976L28.3277 9.99045C28.0313 10.2869 27.7626 10.6166 27.5212 10.9786L28.3533 11.5333ZM29.0246 10.7075C29.2987 10.4486 29.5882 10.2048 29.8932 9.976L29.2933 9.176C28.9583 9.42723 28.6398 9.69539 28.3379 9.98049L29.0246 10.7075ZM29.9089 9.18822C29.2487 8.65085 28.7804 8.13927 28.4826 7.65725L27.6319 8.18275C28.0061 8.78873 28.5618 9.38115 29.2776 9.96378L29.9089 9.18822ZM28.4882 7.66649C28.2264 7.22134 28.0772 6.62044 28.0772 5.832H27.0772C27.0772 6.73956 27.2481 7.53065 27.6263 8.17351L28.4882 7.66649ZM28.0772 5.832C28.0772 5.26081 28.1911 4.7123 28.4202 4.18245L27.5023 3.78554C27.2194 4.4397 27.0772 5.12319 27.0772 5.832H28.0772ZM28.4156 4.19275C28.6594 3.66208 28.9948 3.20566 29.4237 2.81965L28.7548 2.07635C28.2237 2.55433 27.8071 3.12192 27.5069 3.77525L28.4156 4.19275ZM29.4304 2.81353C29.8588 2.4137 30.3779 2.09441 30.9952 1.85924L30.6393 0.924755C29.9126 1.20158 29.2797 1.5863 28.7481 2.08247L29.4304 2.81353ZM31.0011 1.85698C31.6237 1.61082 32.3204 1.484 33.0973 1.484V0.483999C32.2101 0.483999 31.3868 0.629174 30.6334 0.927019L31.0011 1.85698ZM33.0973 1.484C34.0264 1.484 34.789 1.62139 35.4002 1.87722L35.7863 0.954779C35.0215 0.634605 34.1201 0.483999 33.0973 0.483999V1.484ZM35.4131 1.8824C36.0678 2.13537 36.5832 2.4549 36.9742 2.83192L37.6683 2.11208C37.1633 1.6251 36.5267 1.24063 35.7734 0.9496L35.4131 1.8824ZM36.9742 2.83192C37.3707 3.21431 37.6456 3.63739 37.8098 4.10241L38.7527 3.76959C38.5329 3.14661 38.1678 2.59369 37.6683 2.11208L36.9742 2.83192ZM37.816 4.11926C38.0028 4.5933 38.0933 5.05929 38.0933 5.52H39.0933C39.0933 4.92471 38.9757 4.3347 38.7465 3.75274L37.816 4.11926ZM38.0933 5.52C38.0933 6.19221 37.9127 6.82146 37.5441 7.41682L38.3944 7.94318C38.8578 7.19454 39.0933 6.38379 39.0933 5.52H38.0933ZM37.5424 7.4197C37.1796 8.01456 36.7287 8.47715 36.1903 8.81726L36.7242 9.66274C37.4018 9.23485 37.9589 8.65744 38.3961 7.9403L37.5424 7.4197ZM36.185 9.65939C37.0579 10.226 37.6383 10.7984 37.9697 11.3646L38.8328 10.8594C38.3962 10.1136 37.6806 9.43801 36.7295 8.82061L36.185 9.65939ZM37.9772 11.377C38.3207 11.9265 38.5013 12.5838 38.5013 13.368H39.5013C39.5013 12.4242 39.2818 11.5775 38.8252 10.847L37.9772 11.377ZM30.1973 13.512C30.1973 13.7717 30.251 14.0424 30.3429 14.3181L31.2916 14.0019C31.2235 13.7976 31.1973 13.6363 31.1973 13.512H30.1973ZM30.3577 14.357C30.4814 14.6457 30.6638 14.9057 30.8957 15.1376L31.6028 14.4304C31.4507 14.2783 31.3451 14.1223 31.2768 13.963L30.3577 14.357ZM30.8957 15.1376C31.1421 15.384 31.4481 15.577 31.7992 15.7248L32.1873 14.8032C31.9304 14.695 31.7404 14.568 31.6028 14.4304L30.8957 15.1376ZM31.7992 15.7248C32.1805 15.8853 32.6183 15.956 33.0973 15.956V14.956C32.7122 14.956 32.414 14.8987 32.1873 14.8032L31.7992 15.7248ZM33.0973 15.956C33.9976 15.956 34.7653 15.7405 35.2819 15.2023L34.5606 14.5097C34.3092 14.7715 33.8609 14.956 33.0973 14.956V15.956ZM35.2819 15.2023C35.7439 14.7211 35.9972 14.1527 35.9972 13.512H34.9972C34.9972 13.8633 34.8666 14.1909 34.5606 14.5097L35.2819 15.2023ZM35.9972 13.512C35.9972 13.0606 35.8882 12.6408 35.6599 12.2673L34.8066 12.7887C34.9303 12.9912 34.9972 13.2274 34.9972 13.512H35.9972ZM35.6703 12.2852C35.472 11.9282 35.1967 11.6262 34.854 11.3787L34.2685 12.1893C34.5018 12.3578 34.6745 12.5518 34.7962 12.7708L35.6703 12.2852ZM34.8682 11.3893C34.5373 11.1319 34.1508 10.9181 33.7149 10.7438L33.3436 11.6722C33.7077 11.8179 34.0092 11.9881 34.2543 12.1787L34.8682 11.3893ZM33.7376 10.7535C33.3337 10.5683 32.899 10.4014 32.4343 10.252L32.1282 11.204C32.5595 11.3426 32.9568 11.4956 33.3209 11.6625L33.7376 10.7535ZM31.9813 10.328C31.4905 10.696 31.0756 11.1279 30.7395 11.6232L31.567 12.1848C31.8389 11.7841 32.176 11.432 32.5812 11.128L31.9813 10.328ZM30.7395 11.6232C30.3711 12.1662 30.1973 12.8036 30.1973 13.512H31.1973C31.1973 12.9724 31.3274 12.5378 31.567 12.1847L30.7395 11.6232ZM35.6372 5.616C35.6372 5.36313 35.5796 5.11373 35.4788 4.87169L34.5557 5.25631C34.6149 5.39827 34.6372 5.51687 34.6372 5.616H35.6372ZM35.4951 4.91696C35.4039 4.62044 35.2361 4.35975 35.0108 4.13445L34.3037 4.84155C34.4304 4.96824 34.5026 5.09155 34.5394 5.21104L35.4951 4.91696ZM35.0272 4.15166C34.8123 3.9153 34.543 3.73325 34.2337 3.59792L33.8328 4.51408C34.0355 4.60275 34.1822 4.7087 34.2873 4.82434L35.0272 4.15166ZM34.2569 3.60879C33.9145 3.4376 33.5214 3.364 33.0973 3.364V4.364C33.4091 4.364 33.64 4.4184 33.8096 4.50321L34.2569 3.60879ZM33.0973 3.364C32.6936 3.364 32.3182 3.42809 31.9848 3.57392L32.3857 4.49008C32.5643 4.41191 32.7969 4.364 33.0973 4.364V3.364ZM31.9848 3.57392C31.6697 3.71178 31.3951 3.90313 31.1687 4.15014L31.9058 4.82586C32.0314 4.68887 32.1888 4.57622 32.3857 4.49008L31.9848 3.57392ZM31.1673 4.15166C30.9684 4.37039 30.8143 4.61489 30.7106 4.88451L31.6439 5.24349C31.7002 5.09711 31.7861 4.95761 31.9072 4.82434L31.1673 4.15166ZM30.7106 4.88451C30.612 5.14072 30.5573 5.40162 30.5573 5.664H31.5573C31.5573 5.54238 31.5825 5.40327 31.6439 5.24349L30.7106 4.88451ZM30.5573 5.664C30.5573 6.307 30.7917 6.89646 31.2229 7.42137L31.9956 6.78663C31.6908 6.41554 31.5573 6.045 31.5573 5.664H30.5573ZM31.2296 7.42939C31.6965 7.97404 32.44 8.39528 33.3877 8.7278L33.7188 7.7842C32.8425 7.47672 32.29 7.12996 31.9889 6.7786L31.2296 7.42939ZM33.8182 8.68C34.3788 8.32968 34.8285 7.91387 35.1477 7.42562L34.3108 6.87837C34.086 7.22212 33.7517 7.54232 33.2882 7.832L33.8182 8.68ZM35.1477 7.42562C35.4837 6.91174 35.6372 6.29935 35.6372 5.616H34.6372C34.6372 6.14865 34.5188 6.56026 34.3108 6.87838L35.1477 7.42562ZM48.2499 11.88L47.8145 12.1261L47.8194 12.1344L48.2499 11.88ZM47.1699 10.968L46.9577 11.4207L47.1699 10.968ZM41.8419 10.224L41.3453 10.1653L41.2793 10.724H41.8419V10.224ZM42.2739 5.688L42.7726 5.72436L42.2739 5.688ZM42.5379 1.368V0.868H42.0611L42.0384 1.34422L42.5379 1.368ZM51.5379 1.368H52.0379V0.868H51.5379V1.368ZM51.5379 4.368V4.868H52.0379V4.368H51.5379ZM45.5379 4.368V3.868H45.0649L45.0386 4.34026L45.5379 4.368ZM45.4179 6.048L44.9196 6.00404L44.9188 6.01775L45.4179 6.048ZM45.2979 7.44L44.8014 7.38043L44.7387 7.90287L45.2637 7.93883L45.2979 7.44ZM50.4579 9.096L50.1329 9.47606L50.1389 9.48101L50.4579 9.096ZM51.7299 15.12L52.1917 15.3115L51.7299 15.12ZM48.4419 17.952L48.2865 17.4767L48.2838 17.4777L48.4419 17.952ZM44.1939 18.264L44.26 17.7684L44.2527 17.7674L44.2453 17.7667L44.1939 18.264ZM42.8259 18.048L42.9307 17.5589L42.9169 17.5564L42.8259 18.048ZM41.6499 17.784L41.7814 17.3016L41.6499 17.784ZM40.8339 17.496L40.3455 17.3888L40.262 17.7691L40.6103 17.9432L40.8339 17.496ZM41.4819 14.544L41.6832 14.0863L41.1244 13.8405L40.9935 14.4368L41.4819 14.544ZM43.0659 15.072L42.9363 15.555L42.9474 15.5578L43.0659 15.072ZM47.8179 14.664L48.1463 15.0411L48.153 15.0351L47.8179 14.664ZM49.0619 13.104C49.0619 12.5628 48.9397 12.0646 48.6803 11.6256L47.8194 12.1344C47.976 12.3994 48.0619 12.7172 48.0619 13.104H49.0619ZM48.6852 11.634C48.4114 11.1495 47.9568 10.7847 47.3821 10.5153L46.9577 11.4207C47.4069 11.6313 47.6724 11.8745 47.8146 12.126L48.6852 11.634ZM47.3821 10.5153C46.809 10.2466 46.0681 10.0531 45.1791 9.9214L45.0326 10.9106C45.8716 11.0349 46.5068 11.2094 46.9577 11.4207L47.3821 10.5153ZM45.1791 9.9214C44.2821 9.7885 43.1675 9.724 41.8419 9.724V10.724C43.1402 10.724 44.2017 10.7875 45.0326 10.9106L45.1791 9.9214ZM42.3384 10.2827C42.5153 8.78709 42.66 7.26763 42.7726 5.72436L41.7752 5.65164C41.6637 7.18037 41.5204 8.68491 41.3453 10.1653L42.3384 10.2827ZM42.7726 5.72436C42.8848 4.18476 42.9731 2.74052 43.0373 1.39178L42.0384 1.34422C41.9747 2.68347 41.8869 4.11924 41.7752 5.65164L42.7726 5.72436ZM42.5379 1.868H51.5379V0.868H42.5379V1.868ZM51.0379 1.368V4.368H52.0379V1.368H51.0379ZM51.5379 3.868H45.5379V4.868H51.5379V3.868ZM45.0386 4.34026C45.0069 4.91116 44.9673 5.46574 44.9198 6.00405L45.9159 6.09195C45.9644 5.54226 46.0048 4.97684 46.0371 4.39573L45.0386 4.34026ZM44.9188 6.01775C44.8872 6.53879 44.848 6.99263 44.8014 7.38043L45.7943 7.49957C45.8438 7.08736 45.8845 6.61321 45.917 6.07825L44.9188 6.01775ZM45.2637 7.93883C47.553 8.09563 49.147 8.63297 50.1329 9.47602L50.7828 8.71598C49.5607 7.67103 47.7147 7.10437 45.332 6.94117L45.2637 7.93883ZM50.1389 9.48101C51.1269 10.2997 51.6379 11.4448 51.6379 12.984H52.6379C52.6379 11.1952 52.0288 9.74832 50.7769 8.71099L50.1389 9.48101ZM51.6379 12.984C51.6379 13.6917 51.5128 14.338 51.268 14.9285L52.1917 15.3115C52.4909 14.59 52.6379 13.8123 52.6379 12.984H51.6379ZM51.268 14.9285C51.0258 15.5126 50.6633 16.0183 50.1751 16.4491L50.8367 17.1989C51.4365 16.6697 51.8899 16.0394 52.1917 15.3115L51.268 14.9285ZM50.1751 16.4491C49.6915 16.8758 49.0669 17.2216 48.2865 17.4768L48.5972 18.4272C49.4809 18.1384 50.2323 17.7322 50.8367 17.1989L50.1751 16.4491ZM48.2838 17.4777C47.5308 17.7286 46.6266 17.86 45.5619 17.86V18.86C46.7052 18.86 47.7209 18.7194 48.6 18.4263L48.2838 17.4777ZM45.5619 17.86C45.1544 17.86 44.7206 17.8298 44.26 17.7684L44.1278 18.7596C44.6271 18.8262 45.1053 18.86 45.5619 18.86V17.86ZM44.2453 17.7667C43.7989 17.7205 43.3607 17.6513 42.9306 17.5591L42.7211 18.5369C43.187 18.6367 43.6608 18.7115 44.1424 18.7613L44.2453 17.7667ZM42.9169 17.5564C42.4959 17.4784 42.1177 17.3933 41.7814 17.3016L41.5183 18.2664C41.8861 18.3667 42.2918 18.4576 42.7348 18.5396L42.9169 17.5564ZM41.7814 17.3016C41.4425 17.2092 41.2066 17.1234 41.0575 17.0488L40.6103 17.9432C40.8451 18.0606 41.1533 18.1668 41.5183 18.2664L41.7814 17.3016ZM41.3222 17.6032L41.9702 14.6512L40.9935 14.4368L40.3455 17.3888L41.3222 17.6032ZM41.2805 15.0017C41.7128 15.1919 42.2676 15.3755 42.9363 15.5549L43.1954 14.5891C42.5521 14.4165 42.0509 14.2481 41.6832 14.0863L41.2805 15.0017ZM42.9474 15.5578C43.653 15.7299 44.4789 15.812 45.4179 15.812V14.812C44.5329 14.812 43.7907 14.7341 43.1844 14.5862L42.9474 15.5578ZM45.4179 15.812C46.5669 15.812 47.515 15.5909 48.1463 15.041L47.4895 14.287C47.1288 14.6011 46.4769 14.812 45.4179 14.812V15.812ZM48.153 15.0351C48.739 14.5058 49.0619 13.8565 49.0619 13.104H48.0619C48.0619 13.5355 47.8888 13.9262 47.4827 14.2929L48.153 15.0351Z" fill="#555555"/>
</svg>
