<svg width="315" height="230" viewBox="0 0 315 230" fill="none" xmlns="http://www.w3.org/2000/svg">
<path fill-rule="evenodd" clip-rule="evenodd" d="M98.0326 168.363C114.617 168.363 128.061 154.919 128.061 138.335C128.061 121.75 114.617 108.306 98.0326 108.306C92.9665 108.306 88.1934 109.561 84.0071 111.776C84.9627 111.574 85.9536 111.467 86.9695 111.467C94.8251 111.467 101.193 117.836 101.193 125.691C101.193 133.547 94.8251 139.915 86.9695 139.915C79.1138 139.915 72.7455 133.547 72.7455 125.691C72.7455 124.019 73.0341 122.414 73.5642 120.924C70.0635 125.835 68.0043 131.844 68.0043 138.335C68.0043 154.919 81.4484 168.363 98.0326 168.363Z" fill="#004D9B"/>
<path fill-rule="evenodd" clip-rule="evenodd" d="M216.565 168.363C233.15 168.363 246.594 154.919 246.594 138.335C246.594 121.75 233.15 108.306 216.565 108.306C211.499 108.306 206.726 109.561 202.54 111.776C203.495 111.574 204.486 111.467 205.502 111.467C213.358 111.467 219.726 117.836 219.726 125.691C219.726 133.547 213.358 139.915 205.502 139.915C197.646 139.915 191.278 133.547 191.278 125.691C191.278 124.019 191.567 122.414 192.097 120.924C188.596 125.835 186.537 131.844 186.537 138.335C186.537 154.919 199.981 168.363 216.565 168.363Z" fill="#004D9B"/>
<path fill-rule="evenodd" clip-rule="evenodd" d="M133.881 222.529C130.943 222.767 127.972 222.888 124.973 222.888C46.741 222.888 11.8987 177.055 15.9225 113.838C15.9225 106.819 16.5855 99.9562 17.8522 93.307C11.5156 105.896 7.9476 120.118 7.9476 135.173C7.9476 186.672 49.6952 228.419 101.193 228.419C112.694 228.419 123.709 226.337 133.881 222.529Z" fill="#5A37B5" fill-opacity="0.8"/>
<path fill-rule="evenodd" clip-rule="evenodd" d="M183.375 222.216C186.177 222.463 189.011 222.589 191.872 222.589C266.488 222.589 299.72 174.901 295.882 109.123C295.882 101.82 295.25 94.6792 294.042 87.7606C300.086 100.86 303.489 115.658 303.489 131.323C303.489 184.907 263.671 228.345 214.553 228.345C203.583 228.345 193.077 226.179 183.375 222.216Z" fill="#5A37B5" fill-opacity="0.8"/>
<circle cx="96.4519" cy="139.915" r="41.8816" stroke="#5A37B5" stroke-width="4.74131"/>
<circle cx="218.145" cy="139.915" r="41.8816" stroke="#5A37B5" stroke-width="4.74131"/>
<path d="M36.3951 44.2987C14.269 43.6666 4.25956 31.3918 0.0450564 26.9139C-0.587119 33.2357 5.57658 44.2987 9.52768 49.04C13.4788 55.3618 21.6444 65.6346 27.7027 70.3759C37.9755 81.439 64.3162 92.7655 77.4865 97.2434L81.4376 98.0336H109.095L127.27 109.887L137.543 127.272L139.124 146.237C138.333 148.608 135.489 155.245 130.431 162.832C125.374 170.418 127.986 184.167 128.851 189.699C132.012 209.929 148.87 224.995 157.299 230C169.152 223.678 172.313 217.357 177.844 207.874C182.58 199.756 187.428 181.502 187.955 172.81L179.425 159.671L175.474 147.817L177.054 124.901L190.488 105.936C200.234 101.458 216.776 95.4731 232.954 98.1868C244.644 100.148 264.242 86.9705 272.671 80.6488C289.265 70.3759 305.333 49.0401 311.391 37.1868C313.235 31.6552 316.291 23.1209 313.762 26.9139C310.601 31.6552 309.021 39.5574 267.139 44.2987C225.257 49.04 194.439 63.264 184.166 79.8586C173.893 96.4532 166.721 106.726 166.721 130.433C166.721 154.139 150.916 157.3 149.336 135.174C148.072 117.473 140.441 96.98 136.753 88.551C120.158 60.8933 94.0811 56.152 90.9202 54.5716C87.7593 52.9911 64.0528 45.0889 36.3951 44.2987Z" fill="#5A37B5" fill-opacity="0.8"/>
<path d="M155.392 54.7837C155.392 57.6838 157.367 63.5928 158.422 67.0201C158.422 67.0201 162.511 57.6838 162.511 54.7837C162.511 51.8836 155.393 52.1472 155.392 54.7837Z" fill="#5A37B5" fill-opacity="0.8"/>
<path d="M155.392 72.0493C155.392 74.9494 157.367 80.8584 158.422 84.2858C158.422 84.2858 162.511 74.9494 162.511 72.0493C162.511 69.1492 155.393 69.4129 155.392 72.0493Z" fill="#5A37B5" fill-opacity="0.8"/>
<path d="M140.423 61.6996C140.676 64.5887 143.158 70.3031 144.507 73.6255C144.507 73.6255 147.767 63.9683 147.515 61.0792C147.262 58.1901 140.194 59.0732 140.423 61.6996Z" fill="#5A37B5" fill-opacity="0.8"/>
<path d="M170.09 61.6652C169.837 64.5542 171.289 70.6128 172.041 74.1191C172.041 74.1191 176.928 65.1746 177.181 62.2856C177.434 59.3965 170.32 59.0388 170.09 61.6652Z" fill="#5A37B5" fill-opacity="0.8"/>
<path d="M184.266 50.4399C183.812 53.3043 184.838 59.4494 185.343 62.9995C185.343 62.9995 190.843 54.4178 191.296 51.5534C191.75 48.689 184.678 47.8359 184.266 50.4399Z" fill="#5A37B5" fill-opacity="0.8"/>
<path d="M198.252 38.5872C197.501 41.3884 197.879 47.6071 198.011 51.1907C198.011 51.1907 204.377 43.2308 205.128 40.4295C205.878 37.6282 198.934 36.0406 198.252 38.5872Z" fill="#5A37B5" fill-opacity="0.8"/>
<path d="M215.051 27.0781C214.012 29.7855 213.738 36.0097 213.494 39.5873C213.494 39.5873 220.658 32.3365 221.697 29.6291C222.736 26.9216 215.996 24.6168 215.051 27.0781Z" fill="#5A37B5" fill-opacity="0.8"/>
<path d="M126.618 50.7421C127.071 53.6065 129.946 59.1339 131.524 62.3541C131.524 62.3541 134.102 52.4929 133.648 49.6286C133.195 46.7642 126.205 48.1381 126.618 50.7421Z" fill="#5A37B5" fill-opacity="0.8"/>
<path d="M112.225 40.2771C112.976 43.0784 116.412 48.275 118.318 51.3126C118.318 51.3126 119.851 41.236 119.101 38.4347C118.35 35.6335 111.543 37.7305 112.225 40.2771Z" fill="#5A37B5" fill-opacity="0.8"/>
<path d="M97.2909 30.2867C98.2828 33.0119 102.159 37.8892 104.322 40.7492C104.322 40.7492 104.972 30.5773 103.98 27.8521C102.988 25.1269 96.3893 27.8092 97.2909 30.2867Z" fill="#5A37B5" fill-opacity="0.8"/>
<path d="M109.179 21.4485C109.929 24.2498 113.366 29.4464 115.272 32.484C115.272 32.484 116.805 22.4074 116.054 19.6061C115.304 16.8048 108.496 18.9019 109.179 21.4485Z" fill="#5A37B5" fill-opacity="0.8"/>
<path d="M124.428 32.5477C125.178 35.349 128.615 40.5456 130.52 43.5833C130.52 43.5833 132.054 33.5066 131.303 30.7054C130.553 27.9041 123.745 30.0011 124.428 32.5477Z" fill="#5A37B5" fill-opacity="0.8"/>
<path d="M121.528 12.2343C122.082 15.0811 125.148 20.5048 126.837 23.668C126.837 23.668 129.069 13.7228 128.516 10.876C127.963 8.02922 121.025 9.64626 121.528 12.2343Z" fill="#5A37B5" fill-opacity="0.8"/>
<path d="M135.502 5.74524C135.856 8.62374 138.536 14.248 140 17.5214C140 17.5214 142.921 7.75621 142.568 4.87773C142.214 1.99925 135.181 3.12844 135.502 5.74524Z" fill="#5A37B5" fill-opacity="0.8"/>
<path d="M136.562 25.2671C136.916 28.1456 139.596 33.7699 141.06 37.0432C141.06 37.0432 143.981 27.2781 143.628 24.3996C143.274 21.5211 136.241 22.6503 136.562 25.2671Z" fill="#5A37B5" fill-opacity="0.8"/>
<path d="M137.622 44.7891C137.976 47.6676 140.656 53.2919 142.12 56.5652C142.12 56.5652 145.041 46.8 144.688 43.9216C144.334 41.0431 137.301 42.1723 137.622 44.7891Z" fill="#5A37B5" fill-opacity="0.8"/>
<path d="M151.089 2.07738C151.089 4.97748 153.063 10.8865 154.118 14.3138C154.118 14.3138 158.207 4.97748 158.207 2.07738C158.207 -0.822719 151.089 -0.559066 151.089 2.07738Z" fill="#5A37B5" fill-opacity="0.8"/>
<path d="M150.243 21.1606C150.243 24.0607 152.217 29.9697 153.272 33.3971C153.272 33.3971 157.361 24.0607 157.361 21.1606C157.361 18.2605 150.243 18.5242 150.243 21.1606Z" fill="#5A37B5" fill-opacity="0.8"/>
<path d="M150.243 40.2439C150.243 43.144 152.217 49.053 153.272 52.4804C153.272 52.4804 157.361 43.144 157.361 40.2439C157.361 37.3438 150.243 37.6074 150.243 40.2439Z" fill="#5A37B5" fill-opacity="0.8"/>
<path d="M167.662 3.22353C167.409 6.11259 168.861 12.1712 169.613 15.6774C169.613 15.6774 174.501 6.733 174.753 3.84393C175.006 0.954871 167.892 0.597119 167.662 3.22353Z" fill="#5A37B5" fill-opacity="0.8"/>
<path d="M164.94 21.1527C164.688 24.0418 166.14 30.1004 166.892 33.6066C166.892 33.6066 171.779 24.6622 172.032 21.7731C172.284 18.8841 165.17 18.5263 164.94 21.1527Z" fill="#5A37B5" fill-opacity="0.8"/>
<path d="M163.426 39.6303C163.173 42.5193 164.625 48.5779 165.377 52.0842C165.377 52.0842 170.264 43.1397 170.517 40.2507C170.77 37.3616 163.656 37.0039 163.426 39.6303Z" fill="#5A37B5" fill-opacity="0.8"/>
<path d="M181.583 7.28934C181.179 10.1612 182.312 16.2875 182.879 19.8283C182.879 19.8283 188.228 11.1519 188.632 8.28003C189.035 5.40815 181.95 4.67856 181.583 7.28934Z" fill="#5A37B5" fill-opacity="0.8"/>
<path d="M179.208 24.3949C178.804 27.2668 179.937 33.3931 180.504 36.9339C180.504 36.9339 185.853 28.2575 186.257 25.3856C186.661 22.5137 179.575 21.7842 179.208 24.3949Z" fill="#5A37B5" fill-opacity="0.8"/>
<path d="M174.967 42.0412C174.563 44.913 175.696 51.0393 176.264 54.5801C176.264 54.5801 181.613 45.9037 182.016 43.0319C182.42 40.16 175.334 39.4304 174.967 42.0412Z" fill="#5A37B5" fill-opacity="0.8"/>
<path d="M195.403 12.6259C194.75 15.4517 195.345 21.6534 195.602 25.2302C195.602 25.2302 201.686 17.053 202.339 14.2272C202.991 11.4015 195.996 10.0571 195.403 12.6259Z" fill="#5A37B5" fill-opacity="0.8"/>
<path d="M189.042 30.4975C188.389 33.3233 188.984 39.525 189.241 43.1018C189.241 43.1018 195.325 34.9246 195.978 32.0988C196.63 29.273 189.635 27.9287 189.042 30.4975Z" fill="#5A37B5" fill-opacity="0.8"/>
<path d="M205.208 20.1812C204.457 22.9824 204.835 29.2011 204.966 32.7847C204.966 32.7847 211.333 24.8248 212.083 22.0235C212.834 19.2222 205.89 17.6346 205.208 20.1812Z" fill="#5A37B5" fill-opacity="0.8"/>
</svg>
