<svg width="198" height="145" viewBox="0 0 198 145" fill="none" xmlns="http://www.w3.org/2000/svg">
<path fill-rule="evenodd" clip-rule="evenodd" d="M61.7281 105.665C72.1112 105.665 80.5284 97.2483 80.5284 86.8652C80.5284 76.482 72.1112 68.0648 61.7281 68.0648C58.5563 68.0648 55.5679 68.8503 52.9469 70.2373C53.5452 70.1106 54.1656 70.0439 54.8017 70.0439C59.72 70.0439 63.7071 74.031 63.7071 78.9493C63.7071 83.8676 59.72 87.8547 54.8017 87.8547C49.8833 87.8547 45.8962 83.8676 45.8962 78.9493C45.8962 77.9023 46.0769 76.8974 46.4089 75.9642C44.217 79.0389 42.9277 82.8015 42.9277 86.8652C42.9277 97.2483 51.3449 105.665 61.7281 105.665Z" fill="#004D9B"/>
<path fill-rule="evenodd" clip-rule="evenodd" d="M135.94 105.665C146.323 105.665 154.74 97.2483 154.74 86.8652C154.74 76.482 146.323 68.0648 135.94 68.0648C132.768 68.0648 129.78 68.8503 127.159 70.2372C127.757 70.1105 128.377 70.0439 129.013 70.0439C133.932 70.0439 137.919 74.031 137.919 78.9493C137.919 83.8676 133.932 87.8547 129.013 87.8547C124.095 87.8547 120.108 83.8676 120.108 78.9493C120.108 77.9024 120.289 76.8978 120.62 75.9647C118.429 79.0393 117.14 82.8017 117.14 86.8652C117.14 97.2483 125.557 105.665 135.94 105.665Z" fill="#004D9B"/>
<path fill-rule="evenodd" clip-rule="evenodd" d="M84.1725 139.578C82.333 139.727 80.4729 139.803 78.595 139.803C29.6152 139.803 7.80085 111.108 10.3201 71.5279C10.3201 67.1339 10.7352 62.8369 11.5283 58.674C7.56104 66.5559 5.32715 75.46 5.32715 84.886C5.32715 117.128 31.4648 143.266 63.7071 143.266C70.9078 143.266 77.804 141.962 84.1725 139.578Z" fill="#5A37B5" fill-opacity="0.8"/>
<path fill-rule="evenodd" clip-rule="evenodd" d="M115.16 139.382C116.915 139.537 118.689 139.616 120.481 139.616C167.197 139.616 188.003 109.759 185.6 68.576C185.6 64.0041 185.204 59.533 184.448 55.2014C188.232 63.4026 190.362 72.6675 190.362 82.4753C190.362 116.023 165.433 143.22 134.681 143.22C127.812 143.22 121.235 141.863 115.16 139.382Z" fill="#5A37B5" fill-opacity="0.8"/>
<circle cx="60.739" cy="87.8544" r="26.2215" stroke="#5A37B5" stroke-width="2.96847"/>
<circle cx="136.929" cy="87.8544" r="26.2215" stroke="#5A37B5" stroke-width="2.96847"/>
<path d="M23.1381 27.9905C9.28519 27.5947 3.01842 19.9096 0.379772 17.1061C-0.0160248 21.064 3.84299 27.9905 6.31672 30.959C8.79044 34.9169 13.9028 41.3486 17.6959 44.3171C24.1276 51.2435 40.6191 58.3349 48.8648 61.1384L51.3386 61.6332H68.6547L80.0338 69.0544L86.4655 79.9388L87.455 91.8127C86.9603 93.2969 85.1792 97.4528 82.0128 102.202C78.8464 106.952 80.4822 115.56 81.0233 119.024C83.0023 131.689 93.5569 141.122 98.8342 144.256C106.255 140.298 108.234 136.34 111.698 130.403C114.662 125.32 117.698 113.892 118.028 108.45L112.687 100.223L110.213 92.8022L111.203 78.4545L119.613 66.5806C125.715 63.7771 136.072 60.0301 146.201 61.7291C153.52 62.9568 165.79 54.7067 171.067 50.7488C181.457 44.3171 191.517 30.959 195.31 23.5378C196.464 20.0746 198.377 14.7313 196.794 17.1061C194.815 20.0746 193.825 25.022 167.604 27.9905C141.382 30.959 122.087 39.8644 115.656 50.254C109.224 60.6437 104.733 67.0754 104.733 81.9178C104.733 96.7602 94.8383 98.7391 93.8488 84.8863C93.0572 73.804 88.2796 60.9735 85.9708 55.6962C75.5811 38.3801 59.2545 35.4117 57.2755 34.4222C55.2965 33.4327 40.4542 28.4852 23.1381 27.9905Z" fill="#5A37B5" fill-opacity="0.8"/>
<path d="M97.6406 34.555C97.6406 36.3707 98.8768 40.0703 99.5371 42.2161C99.5371 42.2161 102.097 36.3707 102.097 34.555C102.097 32.7393 97.6407 32.9044 97.6406 34.555Z" fill="#5A37B5" fill-opacity="0.8"/>
<path d="M97.6406 45.3647C97.6406 47.1804 98.8768 50.88 99.5371 53.0258C99.5371 53.0258 102.097 47.1804 102.097 45.3647C102.097 43.549 97.6407 43.7141 97.6406 45.3647Z" fill="#5A37B5" fill-opacity="0.8"/>
<path d="M88.2686 38.8849C88.4268 40.6937 89.9808 44.2714 90.8256 46.3516C90.8256 46.3516 92.8666 40.3053 92.7084 38.4965C92.5501 36.6877 88.1248 37.2405 88.2686 38.8849Z" fill="#5A37B5" fill-opacity="0.8"/>
<path d="M106.843 38.8633C106.684 40.6721 107.594 44.4653 108.064 46.6605C108.064 46.6605 111.124 41.0605 111.282 39.2517C111.441 37.4429 106.987 37.2189 106.843 38.8633Z" fill="#5A37B5" fill-opacity="0.8"/>
<path d="M115.717 31.8354C115.433 33.6287 116.076 37.4761 116.392 39.6988C116.392 39.6988 119.835 34.3259 120.119 32.5326C120.403 30.7392 115.976 30.2051 115.717 31.8354Z" fill="#5A37B5" fill-opacity="0.8"/>
<path d="M124.475 24.4145C124.005 26.1683 124.242 30.0618 124.324 32.3054C124.324 32.3054 128.31 27.3218 128.78 25.568C129.25 23.8141 124.902 22.8201 124.475 24.4145Z" fill="#5A37B5" fill-opacity="0.8"/>
<path d="M134.993 17.2089C134.342 18.904 134.171 22.8008 134.018 25.0407C134.018 25.0407 138.503 20.5011 139.154 18.806C139.804 17.1109 135.584 15.6679 134.993 17.2089Z" fill="#5A37B5" fill-opacity="0.8"/>
<path d="M79.6253 32.0246C79.9093 33.818 81.7091 37.2786 82.6969 39.2947C82.6969 39.2947 84.3112 33.1208 84.0272 31.3274C83.7431 29.5341 79.3672 30.3943 79.6253 32.0246Z" fill="#5A37B5" fill-opacity="0.8"/>
<path d="M70.614 25.4726C71.0839 27.2265 73.2355 30.48 74.4287 32.3818C74.4287 32.3818 75.3888 26.073 74.9188 24.3191C74.4489 22.5653 70.1868 23.8782 70.614 25.4726Z" fill="#5A37B5" fill-opacity="0.8"/>
<path d="M61.2642 19.2178C61.8852 20.924 64.3122 23.9776 65.6665 25.7682C65.6665 25.7682 66.0731 19.3997 65.4521 17.6935C64.8311 15.9873 60.6997 17.6667 61.2642 19.2178Z" fill="#5A37B5" fill-opacity="0.8"/>
<path d="M68.7067 13.6843C69.1766 15.4381 71.3283 18.6916 72.5214 20.5935C72.5214 20.5935 73.4815 14.2846 73.0116 12.5308C72.5417 10.777 68.2796 12.0899 68.7067 13.6843Z" fill="#5A37B5" fill-opacity="0.8"/>
<path d="M78.2536 20.6334C78.7235 22.3872 80.8752 25.6407 82.0683 27.5426C82.0683 27.5426 83.0284 21.2337 82.5585 19.4799C82.0885 17.726 77.8264 19.039 78.2536 20.6334Z" fill="#5A37B5" fill-opacity="0.8"/>
<path d="M76.4386 7.91527C76.785 9.69764 78.7045 13.0933 79.762 15.0737C79.762 15.0737 81.1599 8.84725 80.8134 7.06489C80.467 5.28254 76.1237 6.29495 76.4386 7.91527Z" fill="#5A37B5" fill-opacity="0.8"/>
<path d="M85.1878 3.85269C85.409 5.65488 87.0869 9.17618 88.0038 11.2256C88.0038 11.2256 89.8326 5.11174 89.6113 3.30956C89.39 1.50738 84.9867 2.21435 85.1878 3.85269Z" fill="#5A37B5" fill-opacity="0.8"/>
<path d="M85.8519 16.0751C86.0731 17.8773 87.751 21.3986 88.6679 23.448C88.6679 23.448 90.4966 17.3341 90.2754 15.532C90.0541 13.7298 85.6507 14.4368 85.8519 16.0751Z" fill="#5A37B5" fill-opacity="0.8"/>
<path d="M86.515 28.2975C86.7362 30.0997 88.4141 33.621 89.3309 35.6704C89.3309 35.6704 91.1597 29.5566 90.9384 27.7544C90.7172 25.9522 86.3138 26.6592 86.515 28.2975Z" fill="#5A37B5" fill-opacity="0.8"/>
<path d="M94.9463 1.55623C94.9463 3.37195 96.1825 7.07149 96.8428 9.21733C96.8428 9.21733 99.403 3.37195 99.403 1.55624C99.403 -0.259478 94.9463 -0.0944089 94.9463 1.55623Z" fill="#5A37B5" fill-opacity="0.8"/>
<path d="M94.417 13.504C94.417 15.3197 95.6532 19.0192 96.3135 21.1651C96.3135 21.1651 98.8737 15.3197 98.8737 13.504C98.8737 11.6883 94.417 11.8533 94.417 13.504Z" fill="#5A37B5" fill-opacity="0.8"/>
<path d="M94.417 25.4517C94.417 27.2675 95.6532 30.967 96.3135 33.1128C96.3135 33.1128 98.8737 27.2675 98.8737 25.4517C98.8737 23.636 94.417 23.8011 94.417 25.4517Z" fill="#5A37B5" fill-opacity="0.8"/>
<path d="M105.322 2.27382C105.164 4.08263 106.073 7.87583 106.544 10.0711C106.544 10.0711 109.604 4.47105 109.762 2.66225C109.92 0.853444 105.466 0.62946 105.322 2.27382Z" fill="#5A37B5" fill-opacity="0.8"/>
<path d="M103.619 13.499C103.461 15.3078 104.37 19.101 104.841 21.2963C104.841 21.2963 107.901 15.6963 108.059 13.8875C108.217 12.0787 103.763 11.8547 103.619 13.499Z" fill="#5A37B5" fill-opacity="0.8"/>
<path d="M102.671 25.0675C102.513 26.8763 103.422 30.6695 103.892 32.8648C103.892 32.8648 106.952 27.2648 107.111 25.4559C107.269 23.6471 102.815 23.4232 102.671 25.0675Z" fill="#5A37B5" fill-opacity="0.8"/>
<path d="M114.038 4.81933C113.785 6.61738 114.494 10.453 114.85 12.6698C114.85 12.6698 118.198 7.23763 118.451 5.43959C118.704 3.64155 114.267 3.18476 114.038 4.81933Z" fill="#5A37B5" fill-opacity="0.8"/>
<path d="M112.551 15.5289C112.299 17.327 113.008 21.1626 113.363 23.3794C113.363 23.3794 116.712 17.9472 116.965 16.1492C117.217 14.3511 112.781 13.8944 112.551 15.5289Z" fill="#5A37B5" fill-opacity="0.8"/>
<path d="M109.896 26.577C109.643 28.3751 110.353 32.2106 110.708 34.4275C110.708 34.4275 114.057 28.9953 114.309 27.1973C114.562 25.3992 110.126 24.9424 109.896 26.577Z" fill="#5A37B5" fill-opacity="0.8"/>
<path d="M122.691 8.16059C122.282 9.92977 122.655 13.8126 122.815 16.052C122.815 16.052 126.625 10.9323 127.033 9.16314C127.442 7.39396 123.062 6.55227 122.691 8.16059Z" fill="#5A37B5" fill-opacity="0.8"/>
<path d="M118.708 19.3497C118.3 21.1189 118.672 25.0017 118.833 27.241C118.833 27.241 122.642 22.1214 123.051 20.3522C123.459 18.583 119.08 17.7414 118.708 19.3497Z" fill="#5A37B5" fill-opacity="0.8"/>
<path d="M128.829 12.8908C128.359 14.6447 128.596 18.5381 128.678 20.7817C128.678 20.7817 132.664 15.7982 133.134 14.0443C133.604 12.2905 129.257 11.2964 128.829 12.8908Z" fill="#5A37B5" fill-opacity="0.8"/>
</svg>
