<svg width="198" height="145" viewBox="0 0 198 145" fill="none" xmlns="http://www.w3.org/2000/svg">
<path fill-rule="evenodd" clip-rule="evenodd" d="M61.855 106.325C72.2382 106.325 80.6554 97.9075 80.6554 87.5243C80.6554 77.1412 72.2382 68.724 61.855 68.724C58.6832 68.724 55.6948 69.5095 53.0738 70.8965C53.6721 70.7697 54.2926 70.7031 54.9286 70.7031C59.8469 70.7031 63.834 74.6902 63.834 79.6085C63.834 84.5268 59.8469 88.5139 54.9286 88.5139C50.0103 88.5139 46.0232 84.5268 46.0232 79.6085C46.0232 78.5614 46.2039 77.5566 46.5358 76.6234C44.344 79.6981 43.0547 83.4607 43.0547 87.5243C43.0547 97.9075 51.4719 106.325 61.855 106.325Z" fill="#004D9B"/>
<path fill-rule="evenodd" clip-rule="evenodd" d="M136.067 106.325C146.45 106.325 154.867 97.9075 154.867 87.5243C154.867 77.1412 146.45 68.724 136.067 68.724C132.895 68.724 129.907 69.5094 127.286 70.8964C127.884 70.7697 128.504 70.7031 129.14 70.7031C134.059 70.7031 138.046 74.6902 138.046 79.6085C138.046 84.5268 134.059 88.5139 129.14 88.5139C124.222 88.5139 120.235 84.5268 120.235 79.6085C120.235 78.5616 120.416 77.5569 120.747 76.6239C118.556 79.6985 117.267 83.4609 117.267 87.5243C117.267 97.9075 125.684 106.325 136.067 106.325Z" fill="#004D9B"/>
<path fill-rule="evenodd" clip-rule="evenodd" d="M84.2995 140.237C82.4599 140.386 80.5998 140.462 78.722 140.462C29.7422 140.462 7.9278 111.767 10.4471 72.187C10.4471 67.7931 10.8622 63.4961 11.6552 59.3331C7.68799 67.215 5.4541 76.1192 5.4541 85.5452C5.4541 117.788 31.5917 143.925 63.8341 143.925C71.0348 143.925 77.9309 142.622 84.2995 140.237Z" fill="#5A37B5" fill-opacity="0.8"/>
<path fill-rule="evenodd" clip-rule="evenodd" d="M115.286 140.041C117.041 140.196 118.815 140.275 120.607 140.275C167.323 140.275 188.129 110.418 185.726 69.2352C185.726 64.6633 185.33 60.1922 184.574 55.8606C188.358 64.0618 190.488 73.3267 190.488 83.1345C190.488 116.683 165.559 143.879 134.806 143.879C127.938 143.879 121.361 142.522 115.286 140.041Z" fill="#5A37B5" fill-opacity="0.8"/>
<circle cx="60.8654" cy="88.5136" r="26.2215" stroke="#5A37B5" stroke-width="2.96847"/>
<circle cx="137.056" cy="88.5136" r="26.2215" stroke="#5A37B5" stroke-width="2.96847"/>
<path d="M23.2645 28.6497C9.41165 28.2539 3.14488 20.5688 0.506237 17.7653C0.11044 21.7232 3.96945 28.6497 6.44318 31.6181C8.91691 35.5761 14.0293 42.0078 17.8223 44.9763C24.254 51.9027 40.7456 58.9941 48.9913 61.7976L51.465 62.2924H68.7811L80.1603 69.7136L86.592 80.598L87.5815 92.4719C87.0867 93.9561 85.3056 98.112 82.1393 102.862C78.9729 107.611 80.6086 116.22 81.1498 119.683C83.1288 132.348 93.6833 141.781 98.9606 144.915C106.382 140.957 108.361 136.999 111.824 131.062C114.789 125.98 117.824 114.551 118.154 109.109L112.814 100.883L110.34 93.4614L111.329 79.1137L119.74 67.2398C125.842 64.4363 136.199 60.6893 146.327 62.3883C153.646 63.6159 165.916 55.3659 171.193 51.408C181.583 44.9763 191.643 31.6181 195.436 24.197C196.59 20.7337 198.503 15.3905 196.92 17.7653C194.941 20.7337 193.952 25.6812 167.73 28.6497C141.509 31.6181 122.214 40.5236 115.782 50.9132C109.35 61.3029 104.86 67.7346 104.86 82.577C104.86 97.4193 94.9648 99.3983 93.9753 85.5454C93.1837 74.4631 88.406 61.6327 86.0972 56.3554C75.7076 39.0393 59.381 36.0708 57.402 35.0814C55.423 34.0919 40.5806 29.1444 23.2645 28.6497Z" fill="#5A37B5" fill-opacity="0.8"/>
<path d="M97.7671 35.2142C97.7671 37.0299 99.0033 40.7294 99.6636 42.8753C99.6636 42.8753 102.224 37.0299 102.224 35.2142C102.224 33.3985 97.7671 33.5636 97.7671 35.2142Z" fill="#5A37B5" fill-opacity="0.8"/>
<path d="M97.7671 46.0239C97.7671 47.8396 99.0033 51.5391 99.6636 53.685C99.6636 53.685 102.224 47.8396 102.224 46.0239C102.224 44.2082 97.7671 44.3732 97.7671 46.0239Z" fill="#5A37B5" fill-opacity="0.8"/>
<path d="M88.3951 39.5441C88.5533 41.3529 90.1073 44.9306 90.9521 47.0107C90.9521 47.0107 92.9931 40.9645 92.8349 39.1557C92.6766 37.3469 88.2513 37.8997 88.3951 39.5441Z" fill="#5A37B5" fill-opacity="0.8"/>
<path d="M106.969 39.5225C106.811 41.3313 107.72 45.1245 108.191 47.3197C108.191 47.3197 111.251 41.7197 111.409 39.9109C111.567 38.1021 107.113 37.8781 106.969 39.5225Z" fill="#5A37B5" fill-opacity="0.8"/>
<path d="M115.844 32.4946C115.56 34.2879 116.203 38.1353 116.519 40.358C116.519 40.358 119.962 34.9851 120.246 33.1918C120.53 31.3984 116.103 30.8643 115.844 32.4946Z" fill="#5A37B5" fill-opacity="0.8"/>
<path d="M124.601 25.0737C124.131 26.8275 124.368 30.721 124.45 32.9646C124.45 32.9646 128.436 27.981 128.906 26.2272C129.376 24.4733 125.028 23.4793 124.601 25.0737Z" fill="#5A37B5" fill-opacity="0.8"/>
<path d="M135.119 17.868C134.468 19.5631 134.296 23.46 134.144 25.6999C134.144 25.6999 138.629 21.1603 139.28 19.4652C139.93 17.7701 135.71 16.327 135.119 17.868Z" fill="#5A37B5" fill-opacity="0.8"/>
<path d="M79.7518 32.6838C80.0358 34.4771 81.8356 37.9377 82.8234 39.9539C82.8234 39.9539 84.4377 33.78 84.1536 31.9866C83.8696 30.1932 79.4936 31.0534 79.7518 32.6838Z" fill="#5A37B5" fill-opacity="0.8"/>
<path d="M70.7409 26.1318C71.2108 27.8856 73.3625 31.1392 74.5556 33.041C74.5556 33.041 75.5157 26.7322 75.0458 24.9783C74.5758 23.2245 70.3137 24.5374 70.7409 26.1318Z" fill="#5A37B5" fill-opacity="0.8"/>
<path d="M61.3906 19.877C62.0116 21.5832 64.4386 24.6368 65.793 26.4274C65.793 26.4274 66.1996 20.0589 65.5786 18.3527C64.9576 16.6465 60.8261 18.3259 61.3906 19.877Z" fill="#5A37B5" fill-opacity="0.8"/>
<path d="M68.8332 14.3435C69.3031 16.0973 71.4548 19.3508 72.6479 21.2527C72.6479 21.2527 73.608 14.9438 73.1381 13.19C72.6681 11.4361 68.406 12.7491 68.8332 14.3435Z" fill="#5A37B5" fill-opacity="0.8"/>
<path d="M78.3806 21.2926C78.8505 23.0464 81.0021 26.2999 82.1953 28.2018C82.1953 28.2018 83.1554 21.8929 82.6854 20.1391C82.2155 18.3852 77.9534 19.6981 78.3806 21.2926Z" fill="#5A37B5" fill-opacity="0.8"/>
<path d="M76.5656 8.57445C76.912 10.3568 78.8314 13.7525 79.889 15.7329C79.889 15.7329 81.2868 9.50643 80.9404 7.72407C80.5939 5.94172 76.2506 6.95413 76.5656 8.57445Z" fill="#5A37B5" fill-opacity="0.8"/>
<path d="M85.3143 4.51187C85.5355 6.31406 87.2134 9.83536 88.1303 11.8847C88.1303 11.8847 89.959 5.77091 89.7378 3.96874C89.5165 2.16656 85.1131 2.87353 85.3143 4.51187Z" fill="#5A37B5" fill-opacity="0.8"/>
<path d="M85.9778 16.7343C86.1991 18.5365 87.877 22.0578 88.7938 24.1072C88.7938 24.1072 90.6226 17.9933 90.4013 16.1911C90.1801 14.389 85.7767 15.0959 85.9778 16.7343Z" fill="#5A37B5" fill-opacity="0.8"/>
<path d="M86.6414 28.9567C86.8627 30.7589 88.5406 34.2802 89.4574 36.3296C89.4574 36.3296 91.2862 30.2157 91.0649 28.4136C90.8436 26.6114 86.4403 27.3184 86.6414 28.9567Z" fill="#5A37B5" fill-opacity="0.8"/>
<path d="M95.0728 2.21541C95.0727 4.03113 96.309 7.73067 96.9692 9.87651C96.9692 9.87651 99.5295 4.03113 99.5295 2.21541C99.5295 0.399701 95.0728 0.564771 95.0728 2.21541Z" fill="#5A37B5" fill-opacity="0.8"/>
<path d="M94.543 14.1632C94.5429 15.9789 95.7792 19.6784 96.4394 21.8243C96.4394 21.8243 98.9997 15.9789 98.9997 14.1632C98.9997 12.3475 94.543 12.5125 94.543 14.1632Z" fill="#5A37B5" fill-opacity="0.8"/>
<path d="M94.543 26.1109C94.5429 27.9266 95.7792 31.6262 96.4394 33.772C96.4394 33.772 98.9997 27.9266 98.9997 26.1109C98.9997 24.2952 94.543 24.4603 94.543 26.1109Z" fill="#5A37B5" fill-opacity="0.8"/>
<path d="M105.449 2.933C105.291 4.74181 106.2 8.53501 106.671 10.7302C106.671 10.7302 109.731 5.13023 109.889 3.32143C110.047 1.51262 105.593 1.28864 105.449 2.933Z" fill="#5A37B5" fill-opacity="0.8"/>
<path d="M103.745 14.1582C103.587 15.967 104.496 19.7602 104.967 21.9554C104.967 21.9554 108.027 16.3555 108.185 14.5466C108.343 12.7378 103.889 12.5139 103.745 14.1582Z" fill="#5A37B5" fill-opacity="0.8"/>
<path d="M102.797 25.7267C102.639 27.5355 103.548 31.3287 104.018 33.5239C104.018 33.5239 107.078 27.9239 107.237 26.1151C107.395 24.3063 102.941 24.0823 102.797 25.7267Z" fill="#5A37B5" fill-opacity="0.8"/>
<path d="M114.165 5.47851C113.912 7.27656 114.621 11.1121 114.976 13.329C114.976 13.329 118.325 7.89681 118.578 6.09877C118.831 4.30073 114.394 3.84394 114.165 5.47851Z" fill="#5A37B5" fill-opacity="0.8"/>
<path d="M112.678 16.1881C112.425 17.9862 113.134 21.8217 113.49 24.0386C113.49 24.0386 116.839 18.6064 117.091 16.8084C117.344 15.0103 112.908 14.5535 112.678 16.1881Z" fill="#5A37B5" fill-opacity="0.8"/>
<path d="M110.023 27.2362C109.77 29.0342 110.479 32.8698 110.834 35.0867C110.834 35.0867 114.183 29.6545 114.436 27.8565C114.689 26.0584 110.252 25.6016 110.023 27.2362Z" fill="#5A37B5" fill-opacity="0.8"/>
<path d="M122.817 8.81977C122.409 10.5889 122.781 14.4718 122.942 16.7111C122.942 16.7111 126.751 11.5915 127.16 9.82232C127.568 8.05314 123.189 7.21144 122.817 8.81977Z" fill="#5A37B5" fill-opacity="0.8"/>
<path d="M118.835 20.0089C118.426 21.778 118.799 25.6608 118.959 27.9002C118.959 27.9002 122.769 22.7806 123.177 21.0114C123.586 19.2422 119.206 18.4005 118.835 20.0089Z" fill="#5A37B5" fill-opacity="0.8"/>
<path d="M128.956 13.55C128.486 15.3038 128.722 19.1973 128.805 21.4409C128.805 21.4409 132.791 16.4573 133.261 14.7035C133.731 12.9496 129.383 11.9556 128.956 13.55Z" fill="#5A37B5" fill-opacity="0.8"/>
</svg>
