<svg width="219" height="160" viewBox="0 0 219 160" fill="none" xmlns="http://www.w3.org/2000/svg">
<path fill-rule="evenodd" clip-rule="evenodd" d="M68.3103 117.208C79.8241 117.208 89.1578 107.874 89.1578 96.3602C89.1578 84.8464 79.8241 75.5127 68.3103 75.5127C64.793 75.5127 61.4792 76.3837 58.5728 77.9218C59.2362 77.7813 59.9243 77.7073 60.6296 77.7073C66.0835 77.7073 70.5047 82.1286 70.5047 87.5825C70.5047 93.0364 66.0835 97.4576 60.6296 97.4576C55.1757 97.4576 50.7544 93.0364 50.7544 87.5825C50.7544 86.4214 50.9548 85.3072 51.3228 84.2725C48.8924 87.6819 47.4628 91.8541 47.4628 96.3602C47.4628 107.874 56.7965 117.208 68.3103 117.208Z" fill="#004D9B"/>
<path fill-rule="evenodd" clip-rule="evenodd" d="M150.603 117.208C162.117 117.208 171.451 107.874 171.451 96.3602C171.451 84.8464 162.117 75.5127 150.603 75.5127C147.086 75.5127 143.772 76.3837 140.866 77.9218C141.529 77.7813 142.217 77.7073 142.922 77.7073C148.376 77.7073 152.797 82.1286 152.797 87.5825C152.797 93.0364 148.376 97.4576 142.922 97.4576C137.468 97.4576 133.047 93.0364 133.047 87.5825C133.047 86.4215 133.247 85.3073 133.615 84.2726C131.185 87.682 129.755 91.8542 129.755 96.3602C129.755 107.874 139.089 117.208 150.603 117.208Z" fill="#004D9B"/>
<path fill-rule="evenodd" clip-rule="evenodd" d="M93.1986 154.813C91.1588 154.978 89.0961 155.062 87.0138 155.062C32.7005 155.062 8.51076 123.242 11.3044 79.3528C11.3044 74.4804 11.7646 69.7155 12.6441 65.0992C8.24484 73.8394 5.7677 83.7132 5.7677 94.1655C5.7677 129.919 34.7515 158.903 70.5047 158.903C78.4895 158.903 86.1366 157.457 93.1986 154.813Z" fill="#5A37B5" fill-opacity="0.8"/>
<path fill-rule="evenodd" clip-rule="evenodd" d="M127.56 154.596C129.506 154.768 131.473 154.855 133.459 154.855C185.262 154.855 208.334 121.747 205.67 76.0797C205.67 71.0099 205.231 66.0519 204.392 61.2485C208.588 70.3428 210.951 80.6166 210.951 91.4925C210.951 128.694 183.306 158.851 149.206 158.851C141.59 158.851 134.296 157.347 127.56 154.596Z" fill="#5A37B5" fill-opacity="0.8"/>
<circle cx="67.2129" cy="97.4573" r="29.0768" stroke="#5A37B5" stroke-width="3.29171"/>
<circle cx="151.7" cy="97.4573" r="29.0768" stroke="#5A37B5" stroke-width="3.29171"/>
<path d="M25.5177 31.0746C10.1564 30.6357 3.20725 22.1138 0.281281 19.005C-0.157614 23.3939 4.12161 31.0746 6.86471 34.3663C9.6078 38.7552 15.2769 45.8873 19.4829 49.179C26.615 56.8597 44.9023 64.7232 54.0459 67.832L56.789 68.3806H75.9907L88.6089 76.6099L95.741 88.6796L96.8382 101.846C96.2896 103.492 94.3146 108.101 90.8034 113.367C87.2922 118.634 89.1061 128.18 89.7061 132.02C91.9006 146.065 103.604 156.525 109.456 160C117.686 155.611 119.88 151.222 123.721 144.639C127.008 139.003 130.374 126.33 130.74 120.295L124.818 111.173L122.075 102.944L123.172 87.0337L132.498 73.8668C139.265 70.758 150.749 66.603 161.981 68.487C170.097 69.8484 183.703 60.7 189.555 56.311C201.076 49.179 212.231 34.3663 216.437 26.137C217.717 22.2967 219.839 16.3716 218.083 19.005C215.889 22.2967 214.791 27.7829 185.714 31.0746C156.638 34.3663 135.242 44.2414 128.109 55.7624C120.977 67.2834 115.998 74.4155 115.998 90.8741C115.998 107.333 105.025 109.527 103.928 94.1658C103.05 81.8767 97.7526 67.6492 95.1923 61.7972C83.6713 42.5956 65.5669 39.3038 63.3724 38.2066C61.178 37.1094 44.7194 31.6232 25.5177 31.0746Z" fill="#5A37B5" fill-opacity="0.8"/>
<path d="M108.133 38.3539C108.133 40.3673 109.504 44.4697 110.236 46.8492C110.236 46.8492 113.075 40.3673 113.075 38.3539C113.075 36.3404 108.133 36.5235 108.133 38.3539Z" fill="#5A37B5" fill-opacity="0.8"/>
<path d="M108.133 50.3408C108.133 52.3542 109.504 56.4566 110.236 58.8361C110.236 58.8361 113.075 52.3542 113.075 50.3408C113.075 48.3274 108.133 48.5104 108.133 50.3408Z" fill="#5A37B5" fill-opacity="0.8"/>
<path d="M97.7406 43.1554C97.916 45.1612 99.6392 49.1284 100.576 51.4351C100.576 51.4351 102.839 44.7304 102.664 42.7247C102.488 40.7189 97.5811 41.332 97.7406 43.1554Z" fill="#5A37B5" fill-opacity="0.8"/>
<path d="M118.337 43.1315C118.161 45.1372 119.17 49.3435 119.692 51.7777C119.692 51.7777 123.085 45.568 123.26 43.5622C123.436 41.5564 118.497 41.308 118.337 43.1315Z" fill="#5A37B5" fill-opacity="0.8"/>
<path d="M128.179 35.3382C127.864 37.3268 128.576 41.5931 128.927 44.0579C128.927 44.0579 132.745 38.0999 133.06 36.1113C133.375 34.1226 128.465 33.5303 128.179 35.3382Z" fill="#5A37B5" fill-opacity="0.8"/>
<path d="M137.889 27.1093C137.368 29.0541 137.63 33.3715 137.721 35.8594C137.721 35.8594 142.141 30.3332 142.662 28.3884C143.184 26.4436 138.363 25.3413 137.889 27.1093Z" fill="#5A37B5" fill-opacity="0.8"/>
<path d="M149.552 19.119C148.83 20.9987 148.64 25.3199 148.471 27.8037C148.471 27.8037 153.444 22.7698 154.166 20.8901C154.887 19.0104 150.208 17.4102 149.552 19.119Z" fill="#5A37B5" fill-opacity="0.8"/>
<path d="M88.1558 35.548C88.4707 37.5367 90.4665 41.3741 91.5618 43.6098C91.5618 43.6098 93.3519 36.7636 93.037 34.7749C92.722 32.7863 87.8695 33.7402 88.1558 35.548Z" fill="#5A37B5" fill-opacity="0.8"/>
<path d="M78.1636 28.2825C78.6846 30.2273 81.0706 33.8351 82.3936 35.9441C82.3936 35.9441 83.4583 28.9482 82.9372 27.0034C82.4161 25.0586 77.6899 26.5145 78.1636 28.2825Z" fill="#5A37B5" fill-opacity="0.8"/>
<path d="M67.7954 21.3466C68.484 23.2386 71.1753 26.6247 72.6771 28.6103C72.6771 28.6103 73.128 21.5483 72.4394 19.6563C71.7507 17.7643 67.1694 19.6266 67.7954 21.3466Z" fill="#5A37B5" fill-opacity="0.8"/>
<path d="M76.0485 15.2106C76.5695 17.1554 78.9555 20.7632 80.2785 22.8722C80.2785 22.8722 81.3432 15.8763 80.8221 13.9315C80.301 11.9867 75.5748 13.4426 76.0485 15.2106Z" fill="#5A37B5" fill-opacity="0.8"/>
<path d="M86.6354 22.9163C87.1564 24.8611 89.5424 28.4689 90.8654 30.5778C90.8654 30.5778 91.9301 23.582 91.409 21.6372C90.8879 19.6924 86.1617 21.1483 86.6354 22.9163Z" fill="#5A37B5" fill-opacity="0.8"/>
<path d="M84.6226 8.81345C85.0067 10.7899 87.1352 14.5553 88.3079 16.7514C88.3079 16.7514 89.858 9.84691 89.4738 7.87047C89.0896 5.89404 84.2734 7.01669 84.6226 8.81345Z" fill="#5A37B5" fill-opacity="0.8"/>
<path d="M94.3242 4.30845C94.5695 6.30688 96.4301 10.2116 97.4468 12.4842C97.4468 12.4842 99.4748 5.70459 99.2294 3.70617C98.984 1.70775 94.1012 2.4917 94.3242 4.30845Z" fill="#5A37B5" fill-opacity="0.8"/>
<path d="M95.06 17.8617C95.3054 19.8601 97.166 23.7648 98.1827 26.0374C98.1827 26.0374 100.211 19.2578 99.9652 17.2594C99.7198 15.261 94.837 16.0449 95.06 17.8617Z" fill="#5A37B5" fill-opacity="0.8"/>
<path d="M95.7959 31.415C96.0412 33.4134 97.9018 37.3182 98.9185 39.5907C98.9185 39.5907 100.946 32.8112 100.701 30.8127C100.456 28.8143 95.5729 29.5983 95.7959 31.415Z" fill="#5A37B5" fill-opacity="0.8"/>
<path d="M105.145 1.76195C105.145 3.77538 106.516 7.87776 107.248 10.2573C107.248 10.2573 110.087 3.77538 110.087 1.76195C110.087 -0.25148 105.145 -0.0684364 105.145 1.76195Z" fill="#5A37B5" fill-opacity="0.8"/>
<path d="M104.558 15.0107C104.558 17.0242 105.929 21.1265 106.661 23.506C106.661 23.506 109.5 17.0242 109.5 15.0107C109.5 12.9973 104.558 13.1803 104.558 15.0107Z" fill="#5A37B5" fill-opacity="0.8"/>
<path d="M104.558 28.2595C104.558 30.2729 105.929 34.3753 106.661 36.7548C106.661 36.7548 109.5 30.2729 109.5 28.2595C109.5 26.2461 104.558 26.4291 104.558 28.2595Z" fill="#5A37B5" fill-opacity="0.8"/>
<path d="M116.652 2.55773C116.476 4.5635 117.484 8.76974 118.006 11.204C118.006 11.204 121.399 4.99422 121.575 2.98845C121.75 0.982687 116.811 0.734314 116.652 2.55773Z" fill="#5A37B5" fill-opacity="0.8"/>
<path d="M114.762 15.0052C114.586 17.011 115.594 21.2173 116.116 23.6515C116.116 23.6515 119.51 17.4417 119.685 15.436C119.861 13.4302 114.921 13.1818 114.762 15.0052Z" fill="#5A37B5" fill-opacity="0.8"/>
<path d="M113.71 27.8335C113.535 29.8393 114.543 34.0455 115.065 36.4798C115.065 36.4798 118.458 30.27 118.634 28.2642C118.809 26.2584 113.87 26.0101 113.71 27.8335Z" fill="#5A37B5" fill-opacity="0.8"/>
<path d="M126.316 5.38036C126.036 7.37419 126.822 11.6274 127.216 14.0857C127.216 14.0857 130.93 8.06199 131.21 6.06815C131.49 4.07432 126.571 3.56779 126.316 5.38036Z" fill="#5A37B5" fill-opacity="0.8"/>
<path d="M124.667 17.2562C124.387 19.25 125.174 23.5033 125.567 25.9615C125.567 25.9615 129.281 19.9378 129.561 17.944C129.841 15.9502 124.922 15.4436 124.667 17.2562Z" fill="#5A37B5" fill-opacity="0.8"/>
<path d="M121.723 29.5073C121.443 31.5011 122.229 35.7544 122.623 38.2126C122.623 38.2126 126.337 32.1889 126.617 30.1951C126.897 28.2013 121.978 27.6947 121.723 29.5073Z" fill="#5A37B5" fill-opacity="0.8"/>
<path d="M135.911 9.08546C135.458 11.0473 135.871 15.3529 136.049 17.8361C136.049 17.8361 140.273 12.159 140.726 10.1972C141.179 8.23534 136.323 7.30199 135.911 9.08546Z" fill="#5A37B5" fill-opacity="0.8"/>
<path d="M131.495 21.4929C131.042 23.4547 131.454 27.7604 131.633 30.2436C131.633 30.2436 135.857 24.5665 136.31 22.6046C136.763 20.6428 131.906 19.7095 131.495 21.4929Z" fill="#5A37B5" fill-opacity="0.8"/>
<path d="M142.718 14.3307C142.197 16.2755 142.459 20.5929 142.55 23.0809C142.55 23.0809 146.97 17.5546 147.491 15.6098C148.013 13.665 143.192 12.5627 142.718 14.3307Z" fill="#5A37B5" fill-opacity="0.8"/>
</svg>
