<svg width="48" height="33" viewBox="0 0 48 33" fill="none" xmlns="http://www.w3.org/2000/svg">
<path d="M46.1797 8.63004L24.3557 0.129223C23.9128 -0.0430745 23.4211 -0.0430745 22.9779 0.129223L1.18139 8.61649C0.734033 8.79156 0.371794 9.13339 0.17079 9.57005C-0.0305687 10.0067 -0.0547934 10.5042 0.102977 10.9581C0.260741 11.4124 0.587702 11.7878 1.01606 12.0058L8.52523 15.7396V25.5081C8.63698 27.3322 9.67737 28.9707 11.2806 29.8481C14.036 31.7081 18.7068 32.8243 23.763 32.8243C28.8192 32.8243 33.4899 31.7081 36.2453 29.8481C37.8487 28.9707 38.889 27.3322 39.0007 25.5081V15.7396L40.1442 15.1746L40.1445 26.0591C40.0995 26.5781 40.2746 27.0922 40.6268 27.4763C40.979 27.8603 41.4762 28.079 41.9976 28.079C42.5187 28.079 43.0159 27.8603 43.3681 27.4763C43.7203 27.0922 43.8954 26.5781 43.8507 26.0591V13.3146L46.4546 12.0058C46.885 11.7927 47.215 11.4204 47.3755 10.9678C47.5357 10.5153 47.5132 10.0177 47.3133 9.58149C47.1129 9.1452 46.7507 8.80372 46.303 8.63005L46.1797 8.63004ZM12.1895 17.5997L22.8535 22.9178H22.8538C23.3735 23.1807 23.9873 23.1807 24.5069 22.9178L35.1709 17.5997L35.1713 25.5081C35.1713 26.5828 31.2582 29.1178 23.6809 29.1178C16.1036 29.1178 12.1905 26.5828 12.1905 25.5081L12.1895 17.5997ZM40.9433 10.5593L23.6799 19.1701L6.4164 10.5593L23.6799 3.84931L40.9433 10.5593Z" fill="#FFCF00"/>
</svg>
